<svg xmlns="http://www.w3.org/2000/svg" viewBox="0 0 120 120"><defs><linearGradient id="g" x1="0" x2="1" y1="0" y2="1"><stop offset="0%" stop-color="#133f84"/><stop offset="100%" stop-color="#1aa0d8"/></linearGradient></defs><rect x="0" y="0" width="120" height="120" rx="24" fill="url(#g)"/><path d="M35 32c-1.1 0-2 .9-2 2v52c0 1.1.9 2 2 2h16c1.1 0 2-.9 2-2V34c0-1.1-.9-2-2-2H35zm4 4h8v48h-8V36z" fill="#fff"/><path d="M61 32c-1.1 0-2 .9-2 2v52c0 1.1.9 2 2 2h24c1.1 0 2-.9 2-2V50c0-1.1-.9-2-2-2H75V42h8c1.1 0 2-.9 2-2v-6c0-1.1-.9-2-2-2H61zm4 8h14v6H65v-6zm-4 12h22v30H61V52z" fill="#fff"/><text x="60" y="110" text-anchor="middle" font-family="Arial, Helvetica, sans-serif" font-size="10" fill="#ffffff" font-weight="700">Comenius <tspan x="60" dy="12">University</tspan></text></svg>